<svg width="34" height="34" viewBox="0 0 34 34" fill="none" xmlns="http://www.w3.org/2000/svg">
<path d="M34 17C34 7.61116 26.3888 0 17 0C7.61116 0 0 7.61116 0 17C0 26.3888 7.61116 34 17 34C26.3888 34 34 26.3888 34 17Z" fill="black"/>
<path d="M24 13H11.886" stroke="white" stroke-width="2"/>
<path d="M9 21H21.114" stroke="white" stroke-width="2"/>
<path d="M13 17C15.2091 17 17 15.2091 17 13C17 10.7909 15.2091 9 13 9C10.7909 9 9 10.7909 9 13C9 15.2091 10.7909 17 13 17Z" fill="black"/>
<path d="M13 16C14.6569 16 16 14.6569 16 13C16 11.3431 14.6569 10 13 10C11.3431 10 10 11.3431 10 13C10 14.6569 11.3431 16 13 16Z" stroke="white" stroke-width="2"/>
<path d="M20 17C17.7909 17 16 18.7909 16 21C16 23.2091 17.7909 25 20 25C22.2091 25 24 23.2091 24 21C24 18.7909 22.2091 17 20 17Z" fill="black"/>
<path d="M20 18C18.3431 18 17 19.3431 17 21C17 22.6569 18.3431 24 20 24C21.6569 24 23 22.6569 23 21C23 19.3431 21.6569 18 20 18Z" stroke="white" stroke-width="2"/>
</svg>
