<svg width="60" height="60" viewBox="0 0 60 60" fill="none" xmlns="http://www.w3.org/2000/svg">
<g filter="url(#filter0_d_20_4037)">
<rect x="6" y="6" width="44" height="44" rx="22" fill="white"/>
<rect x="6.5" y="6.5" width="43" height="43" rx="21.5" stroke="#36A54F"/>
</g>
<path d="M35.5 28.5C35.5 27.12 36.62 26 38 26V25C38 21 37 20 33 20H23C19 20 18 21 18 25V25.5C19.38 25.5 20.5 26.62 20.5 28C20.5 29.38 19.38 30.5 18 30.5V31C18 35 19 36 23 36H33C37 36 38 35 38 31C36.62 31 35.5 29.88 35.5 28.5Z" stroke="#0A9707" stroke-width="1.5" stroke-linecap="round" stroke-linejoin="round"/>
<path d="M25 30.75L31 24.75" stroke="#0A9707" stroke-width="1.5" stroke-linecap="round" stroke-linejoin="round"/>
<path d="M30.9945 30.75H31.0035" stroke="#0A9707" stroke-width="2" stroke-linecap="round" stroke-linejoin="round"/>
<path d="M24.9945 25.25H25.0035" stroke="#0A9707" stroke-width="2" stroke-linecap="round" stroke-linejoin="round"/>
<defs>
<filter id="filter0_d_20_4037" x="0" y="0" width="60" height="60" filterUnits="userSpaceOnUse" color-interpolation-filters="sRGB">
<feFlood flood-opacity="0" result="BackgroundImageFix"/>
<feColorMatrix in="SourceAlpha" type="matrix" values="0 0 0 0 0 0 0 0 0 0 0 0 0 0 0 0 0 0 127 0" result="hardAlpha"/>
<feOffset dx="2" dy="2"/>
<feGaussianBlur stdDeviation="4"/>
<feComposite in2="hardAlpha" operator="out"/>
<feColorMatrix type="matrix" values="0 0 0 0 0.156863 0 0 0 0 0.156863 0 0 0 0 0.156863 0 0 0 0.16 0"/>
<feBlend mode="normal" in2="BackgroundImageFix" result="effect1_dropShadow_20_4037"/>
<feBlend mode="normal" in="SourceGraphic" in2="effect1_dropShadow_20_4037" result="shape"/>
</filter>
</defs>
</svg>
