<svg width="60" height="60" viewBox="0 0 60 60" fill="none" xmlns="http://www.w3.org/2000/svg">
<g filter="url(#filter0_d_20_4077)">
<rect x="6" y="6" width="44" height="44" rx="22" fill="white"/>
<rect x="6.5" y="6.5" width="43" height="43" rx="21.5" stroke="#36A54F"/>
</g>
<path d="M35 25C35 26.45 34.57 27.78 33.83 28.89C32.75 30.49 31.04 31.62 29.05 31.91C28.71 31.97 28.36 32 28 32C27.64 32 27.29 31.97 26.95 31.91C24.96 31.62 23.25 30.49 22.17 28.89C21.43 27.78 21 26.45 21 25C21 21.13 24.13 18 28 18C31.87 18 35 21.13 35 25Z" stroke="#0A9707" stroke-width="1.5" stroke-linecap="round" stroke-linejoin="round"/>
<path d="M37.25 34.47L35.6 34.86C35.23 34.95 34.94 35.23 34.86 35.6L34.51 37.07C34.32 37.87 33.3 38.11 32.77 37.48L28 32L23.23 37.49C22.7 38.12 21.68 37.88 21.49 37.08L21.14 35.61C21.05 35.24 20.76 34.95 20.4 34.87L18.75 34.48C17.99 34.3 17.72 33.35 18.27 32.8L22.17 28.9C23.25 30.5 24.96 31.63 26.95 31.92C27.29 31.98 27.64 32.01 28 32.01C28.36 32.01 28.71 31.98 29.05 31.92C31.04 31.63 32.75 30.5 33.83 28.9L37.73 32.8C38.28 33.34 38.01 34.29 37.25 34.47Z" stroke="#0A9707" stroke-width="1.5" stroke-linecap="round" stroke-linejoin="round"/>
<path d="M28.58 21.98L29.17 23.16C29.25 23.32 29.46 23.48 29.65 23.51L30.72 23.69C31.4 23.8 31.56 24.3 31.07 24.79L30.24 25.62C30.1 25.76 30.02 26.03 30.07 26.23L30.31 27.26C30.5 28.07 30.07 28.39 29.35 27.96L28.35 27.37C28.17 27.26 27.87 27.26 27.69 27.37L26.69 27.96C25.97 28.38 25.54 28.07 25.73 27.26L25.97 26.23C26.01 26.04 25.94 25.76 25.8 25.62L24.97 24.79C24.48 24.3 24.64 23.81 25.32 23.69L26.39 23.51C26.57 23.48 26.78 23.32 26.86 23.16L27.45 21.98C27.74 21.34 28.26 21.34 28.58 21.98Z" stroke="#0A9707" stroke-width="1.5" stroke-linecap="round" stroke-linejoin="round"/>
<defs>
<filter id="filter0_d_20_4077" x="0" y="0" width="60" height="60" filterUnits="userSpaceOnUse" color-interpolation-filters="sRGB">
<feFlood flood-opacity="0" result="BackgroundImageFix"/>
<feColorMatrix in="SourceAlpha" type="matrix" values="0 0 0 0 0 0 0 0 0 0 0 0 0 0 0 0 0 0 127 0" result="hardAlpha"/>
<feOffset dx="2" dy="2"/>
<feGaussianBlur stdDeviation="4"/>
<feComposite in2="hardAlpha" operator="out"/>
<feColorMatrix type="matrix" values="0 0 0 0 0.156863 0 0 0 0 0.156863 0 0 0 0 0.156863 0 0 0 0.16 0"/>
<feBlend mode="normal" in2="BackgroundImageFix" result="effect1_dropShadow_20_4077"/>
<feBlend mode="normal" in="SourceGraphic" in2="effect1_dropShadow_20_4077" result="shape"/>
</filter>
</defs>
</svg>
